<mxfile host="65bd71144e">
    <diagram name="Page-1" id="PlwlkvfMnN6kwZtnsY15">
        <mxGraphModel dx="801" dy="557" grid="1" gridSize="10" guides="1" tooltips="1" connect="1" arrows="1" fold="1" page="1" pageScale="1" pageWidth="850" pageHeight="1100" math="0" shadow="0">
            <root>
                <mxCell id="0"/>
                <mxCell id="1" parent="0"/>
                <mxCell id="Bd2Ap0dNOTu0lGUeh4gH-1" value="&lt;h1&gt;Font&lt;/h1&gt;&lt;p&gt;&lt;/p&gt;" style="text;html=1;strokeColor=#666666;fillColor=#f5f5f5;spacing=5;spacingTop=-20;whiteSpace=wrap;overflow=hidden;rounded=0;fontColor=#333333;align=center;verticalAlign=top;movable=0;resizable=0;rotatable=0;deletable=0;editable=0;connectable=0;" parent="1" vertex="1">
                    <mxGeometry x="20" y="20" width="790" height="50" as="geometry"/>
                </mxCell>
                <mxCell id="Bd2Ap0dNOTu0lGUeh4gH-3" value="&lt;h1&gt;Font Choices&lt;/h1&gt;&lt;p&gt;&lt;/p&gt;&lt;ul&gt;&lt;li&gt;Does the text need to be readable&lt;/li&gt;&lt;li&gt;Is it the size appropriate?&lt;/li&gt;&lt;li&gt;Is the unit appropriate? static? or dynamic?&lt;/li&gt;&lt;ul&gt;&lt;li&gt;&lt;a href=&quot;https://www.w3schools.com/cssref/css_units.php&quot;&gt;https://www.w3schools.com/cssref/css_units.php&lt;/a&gt;&lt;br&gt;&lt;/li&gt;&lt;/ul&gt;&lt;li&gt;Consider Font Theory&lt;/li&gt;&lt;ul&gt;&lt;li&gt;Chosen fonts are appropriately paired (look nice together)&lt;/li&gt;&lt;/ul&gt;&lt;li&gt;Is the chosen font web safe?&lt;/li&gt;&lt;ul&gt;&lt;li&gt;&lt;a href=&quot;https://www.w3schools.com/css/css_font_websafe.asp&quot;&gt;https://www.w3schools.com/css/css_font_websafe.asp&lt;/a&gt;&lt;br&gt;&lt;/li&gt;&lt;li&gt;&lt;a href=&quot;https://www.cssfontstack.com/&quot;&gt;https://www.cssfontstack.com/&lt;/a&gt;&lt;br&gt;&lt;/li&gt;&lt;/ul&gt;&lt;li&gt;Would you prefer to import a font?&lt;/li&gt;&lt;ul&gt;&lt;li&gt;&lt;a href=&quot;https://fonts.google.com/&quot;&gt;https://fonts.google.com/&lt;/a&gt;&lt;br&gt;&lt;/li&gt;&lt;/ul&gt;&lt;/ul&gt;&lt;p&gt;&lt;/p&gt;" style="text;html=1;strokeColor=#82b366;fillColor=#d5e8d4;spacing=5;spacingTop=-20;whiteSpace=wrap;overflow=hidden;rounded=0;movable=0;resizable=0;rotatable=0;deletable=0;editable=0;connectable=0;" parent="1" vertex="1">
                    <mxGeometry x="84" y="120" width="685" height="280" as="geometry"/>
                </mxCell>
                <mxCell id="Bd2Ap0dNOTu0lGUeh4gH-4" value="&lt;h1&gt;Resources&lt;/h1&gt;&lt;p&gt;&lt;/p&gt;&lt;ul&gt;&lt;li&gt;w3schools Text reference:&amp;nbsp;&lt;a href=&quot;https://www.w3schools.com/css/css_text.asp&quot;&gt;https://www.w3schools.com/css/css_text.asp&lt;/a&gt;&lt;/li&gt;&lt;li&gt;w3schools Font reference:&amp;nbsp;&lt;a href=&quot;https://color.adobe.com/create/color-wheel&quot;&gt;https://www.w3schools.com/css/css_font.as&lt;/a&gt;&lt;/li&gt;&lt;/ul&gt;&lt;p&gt;&lt;/p&gt;" style="text;html=1;strokeColor=#b85450;fillColor=#f8cecc;spacing=5;spacingTop=-20;whiteSpace=wrap;overflow=hidden;rounded=0;movable=0;resizable=0;rotatable=0;deletable=0;editable=0;connectable=0;" parent="1" vertex="1">
                    <mxGeometry x="83" y="440" width="685" height="100" as="geometry"/>
                </mxCell>
            </root>
        </mxGraphModel>
    </diagram>
</mxfile>